<?xml version="1.0" standalone="no"?>
<!DOCTYPE svg PUBLIC "-//W3C//DTD SVG 20010904//EN"
 "http://www.w3.org/TR/2001/REC-SVG-20010904/DTD/svg10.dtd">
<svg version="1.0" xmlns="http://www.w3.org/2000/svg"
 width="194.000000pt" height="194.000000pt" viewBox="0 0 194.000000 194.000000"
 preserveAspectRatio="xMidYMid meet">
<metadata>
Created by potrace 1.16, written by Peter Selinger 2001-2019
</metadata>
<g transform="translate(0.000000,194.000000) scale(0.100000,-0.100000)"
fill="#000000" stroke="none">
<path d="M201 1803 c-23 -12 -39 -30 -47 -53 -26 -74 -10 -189 30 -215 12 -8
63 -17 114 -21 80 -6 99 -11 138 -37 45 -30 74 -70 74 -105 0 -10 -14 -40 -30
-66 -93 -146 -140 -296 -140 -446 0 -69 2 -80 18 -80 59 0 207 -23 262 -41 97
-31 197 -87 236 -132 102 -120 55 -280 -105 -362 -29 -14 -49 -30 -46 -36 4
-5 37 -25 73 -43 204 -102 439 -113 645 -30 78 31 215 124 269 182 45 48 113
144 140 197 24 46 65 175 73 227 l7 46 -142 4 c-135 3 -143 4 -161 27 -24 30
-24 62 0 92 18 23 27 24 163 29 l145 5 -14 70 c-61 298 -286 538 -581 616
-117 32 -288 29 -405 -5 -92 -27 -154 -55 -234 -106 -57 -36 -83 -38 -119 -7
l-27 24 46 32 c54 37 67 57 67 102 0 42 -51 90 -127 120 -82 31 -272 39 -322
12z m827 -756 c2 -10 -24 -65 -57 -122 -34 -58 -61 -107 -61 -110 0 -3 11 -5
24 -5 24 0 27 5 40 61 7 30 29 43 59 33 16 -5 19 -13 14 -50 -4 -40 -3 -43 22
-46 22 -2 26 -8 26 -33 0 -25 -5 -32 -33 -40 -25 -7 -35 -17 -39 -38 -7 -35
-35 -52 -64 -36 -17 8 -20 17 -15 39 l5 29 -66 3 c-98 4 -100 13 -23 149 103
185 107 191 138 187 16 -2 28 -10 30 -21z m363 -6 c21 -21 29 -39 29 -64 0
-56 -36 -97 -129 -147 -54 -29 -87 -53 -92 -67 -8 -23 -7 -23 76 -23 93 0 111
-12 94 -58 -8 -22 -12 -23 -131 -20 l-123 3 -3 35 c-8 85 34 145 134 190 67
31 100 65 83 86 -6 8 -39 14 -77 16 -61 3 -67 5 -70 26 -6 42 14 52 100 52 75
0 81 -2 109 -29z"/>
<path d="M190 709 c-35 -5 -76 -15 -90 -22 -68 -32 -101 -215 -62 -344 25 -82
40 -97 107 -111 137 -29 286 -24 431 14 185 48 298 157 265 257 -15 45 -87
112 -155 143 -126 57 -348 86 -496 63z"/>
</g>
</svg>
